<svg
            xmlns="http://www.w3.org/2000/svg"
            width="149"
            height="56"
            viewBox="0 0 159 66"
            fill="none"
          >
            <path
              d="M10.0444 27.8459L6.72768 27.7723C6.70109 24.899 5.83147 21.7469 5.51782 18.789C5.42476 15.8098 5.31176 12.8637 5.17882 9.95064C5.05918 7.03761 4.93289 4.25699 4.79995 1.60878C6.26227 1.56906 7.60494 1.5492 8.82798 1.5492C10.051 1.5492 11.181 1.55582 12.2179 1.56906C13.5473 1.59554 14.7437 1.65513 15.8072 1.74782C16.8707 1.8405 17.8944 1.95967 18.8781 2.10532C18.9446 2.68793 18.9911 3.31688 19.0177 3.99217C19.0443 4.66747 19.0576 5.23021 19.0576 5.68041C18.5524 5.62744 17.8146 5.56786 16.8441 5.50165C15.8737 5.42221 14.7105 5.356 13.3545 5.30304C11.9985 5.23683 10.4764 5.20373 8.78809 5.20373C8.84127 5.70689 8.89444 6.36894 8.94762 7.18989C9.00079 8.01083 9.04732 8.8715 9.0872 9.77189C9.12709 10.659 9.16697 11.4734 9.20685 12.2149C10.6027 12.2149 11.9055 12.248 13.1152 12.3142C14.3383 12.3804 15.3685 12.4598 16.206 12.5525C17.0436 12.632 17.9284 11.8879 18.1544 11.9277C18.3784 12.374 18.8265 13.0964 19.0506 13.713C19.0506 14.1593 19.9468 15.0519 19.7228 15.4983C19.0049 15.4188 16.113 15.7966 15.1292 15.7304C14.1455 15.6642 13.1485 15.6112 12.1381 15.5715C11.1411 15.5317 10.2438 15.5119 9.44614 15.5119C9.53919 16.6374 9.6256 17.9085 9.70537 19.3253C9.78513 20.7289 9.85825 22.1655 9.92471 23.6353C9.99118 25.105 10.0311 26.5086 10.0444 27.8459Z"
              fill="#F1AC5A"
            />
            <path
              d="M27.3318 28.8881C25.6701 28.8881 24.1612 28.6696 22.8053 28.2327C21.4626 27.7825 20.3925 27.0675 19.5948 26.0876C18.7972 25.0945 18.3984 23.7771 18.3984 22.1352C18.3984 20.5595 18.8437 19.2552 19.7344 18.2224C20.6251 17.1896 21.8282 16.4283 23.3437 15.9384C24.8725 15.4352 26.5807 15.1836 28.4684 15.1836C29.3458 15.1836 30.2033 15.2498 31.0408 15.3822C31.8783 15.5014 32.6028 15.6471 33.2143 15.8192C33.8259 15.9781 34.238 16.1039 34.4507 16.1966C34.4108 15.7596 34.331 15.316 34.2114 14.8658C34.105 14.4024 33.9388 13.9985 33.7129 13.6543C33.2077 12.7671 32.4699 12.0389 31.4994 11.4695C30.5423 10.8869 29.3392 10.5956 27.8902 10.5956C26.3614 10.5956 25.0652 10.9266 24.0017 11.5887C22.9382 12.2375 20.4897 14.404 19.9579 15.3043L19.0506 13.4898L18.3784 11.7873C18.9634 10.9266 19.7344 10.1653 20.6916 9.5032C21.6487 8.84115 22.7521 8.31813 24.0017 7.93414C25.2513 7.55015 26.594 7.35815 28.0297 7.35815C30.2631 7.35815 32.111 7.78187 33.5733 8.62929C35.0356 9.47672 36.1057 10.5956 36.7837 11.9859C37.1294 12.6877 37.4019 13.4557 37.6013 14.2898C37.8007 15.124 37.9203 16.1568 37.9602 17.3882C37.9868 18.6859 38.0134 19.7915 38.04 20.7051C38.0799 21.6188 38.1198 22.4066 38.1596 23.0687C38.2261 23.9293 38.359 24.4854 38.5584 24.737C38.7579 24.9886 39.0437 25.1144 39.4159 25.1144C39.8413 25.1144 40.2002 24.9356 40.4927 24.5781C40.7852 24.2074 41.9686 23.2828 44.1004 22.7584L45.3766 22.5443C44.0323 23.6601 41.9151 26.4625 41.729 27.6765C41.0245 28.2591 40.2002 28.5505 39.2564 28.5505C38.5119 28.5505 37.8539 28.4114 37.2822 28.1334C36.7239 27.8421 36.2786 27.4713 35.9462 27.0211C35.6139 26.5709 35.4211 26.1075 35.3679 25.6308C35.1021 26.1207 34.5836 26.6173 33.8126 27.1204C33.0548 27.6236 32.1176 28.0473 31.0009 28.3916C29.8975 28.7226 28.6745 28.8881 27.3318 28.8881ZM28.0497 25.7698C28.9138 25.7698 29.7579 25.6374 30.5822 25.3726C31.4064 25.1078 32.1641 24.7569 32.8554 24.3199C33.56 23.883 34.1383 23.3997 34.5902 22.87C34.577 22.0491 34.577 21.3208 34.5902 20.6853C34.6035 20.0365 34.6235 19.4406 34.6501 18.8977C34.2645 18.7653 33.5267 18.5932 32.4366 18.3813C31.3466 18.1562 30.1169 18.0437 28.7476 18.0437C27.5645 18.0437 26.4877 18.2026 25.5172 18.5204C24.5601 18.8249 23.7957 19.2685 23.224 19.8511C22.6657 20.4337 22.3865 21.1355 22.3865 21.9564C22.3865 22.9495 22.6258 23.7241 23.1044 24.2802C23.5963 24.8231 24.2676 25.2071 25.1184 25.4322C25.9692 25.6573 26.9463 25.7698 28.0497 25.7698Z"
              fill="#F1AC5A"
            />
            <path
              d="M52.5242 30.0506C51.2879 30.0506 50.0582 29.8784 48.8352 29.5342C47.6122 29.1899 46.1366 28.2167 45.1262 27.6473C43.4724 27.326 41.68 28.4418 41.8199 27.6473C41.9129 27.4619 42.3601 26.6074 42.5762 26.2101C42.749 25.8923 43.4724 24.8712 43.9205 24.4248C44.1445 24.2017 44.3575 23.8353 44.5926 23.5322C44.8629 23.1838 45.316 22.7984 45.4889 22.6395C46.0605 23.2751 46.6218 24.0722 47.4194 24.6681C48.217 25.2507 49.0745 25.7274 49.9918 26.0981C50.909 26.4556 51.8263 26.6344 52.7436 26.6344C53.621 26.6344 54.412 26.5086 55.1165 26.257C55.8344 25.9922 56.3994 25.6148 56.8115 25.1249C57.2369 24.635 57.4496 24.0457 57.4496 23.3572C57.4496 22.5627 57.197 21.8808 56.6919 21.3115C56.1867 20.7289 55.5087 20.2191 54.6579 19.7821C53.8071 19.3319 52.8699 18.9215 51.8463 18.5507C50.6099 18.1005 49.48 17.6106 48.4563 17.081C47.446 16.5381 46.6351 15.8628 46.0236 15.0551C45.4254 14.2474 45.1262 13.2212 45.1262 11.9765C45.1262 10.7054 45.4852 9.6461 46.203 8.79868C46.9342 7.95125 47.8913 7.30906 49.0745 6.8721C50.2709 6.43515 51.5604 6.21667 52.943 6.21667C54.4851 6.21667 55.9009 6.41529 57.1904 6.81252C58.4932 7.19651 59.4902 7.64671 60.1815 8.16311C60.1283 8.3882 60.2251 8.87894 60.0523 9.24969C59.8795 9.6072 59.4703 9.77851 59.2443 10.1493C58.708 10.3655 58.7856 10.8577 58.5463 11.1622C57.9082 10.7385 57.1306 10.3346 56.2133 9.95065C55.296 9.56666 54.299 9.37466 53.2222 9.37466C52.5043 9.37466 51.813 9.46073 51.1483 9.63286C50.4837 9.79175 49.9386 10.0632 49.5132 10.4472C49.0878 10.8312 48.8751 11.3542 48.8751 12.0163C48.8751 12.5856 49.0812 13.0954 49.4933 13.5456C49.9187 13.9958 50.4903 14.3996 51.2082 14.7571C51.926 15.1014 52.7369 15.4324 53.6409 15.7502C54.731 16.121 55.7413 16.5381 56.6719 17.0015C57.6025 17.4517 58.4068 17.9747 59.0847 18.5706C59.776 19.1532 60.3144 19.8285 60.6999 20.5964C61.0855 21.3512 61.2782 22.2052 61.2782 23.1586C61.2782 24.6813 60.8861 25.9525 60.1017 26.972C59.3174 27.9916 58.2672 28.7596 56.9511 29.276C55.635 29.7924 54.1594 30.0506 52.5242 30.0506Z"
              fill="#F1AC5A"
            />
            <path
              d="M79.1582 24.7475C78.9588 25.3831 78.653 26.0518 78.2409 26.7535C77.8288 27.4421 77.2572 28.0247 76.526 28.5014C75.7949 28.9913 74.851 29.2362 73.6944 29.2362C72.2055 29.2362 71.0224 28.9118 70.145 28.263C69.2809 27.6142 68.6627 26.7602 68.2905 25.7009C67.9183 24.6416 67.7322 23.4896 67.7322 22.245C67.7322 21.5961 67.7388 20.8282 67.7521 19.941C67.7787 19.0539 67.8053 18.1336 67.8319 17.1803C67.8585 16.2269 67.885 15.3067 67.9116 14.4195C67.9515 13.5191 67.9848 12.7313 68.0113 12.056C68.0379 11.3674 68.0579 10.8577 68.0712 10.5266C66.7684 10.659 65.6384 10.8047 64.6812 10.9636C63.7374 11.1092 58.932 11.4813 58.708 11.2582C58.6282 10.8344 59.1561 10.3655 59.6042 9.91918C59.8957 9.6288 60.2081 9.29233 60.1815 8.90834C60.1682 8.52435 60.2764 8.48944 60.2764 8.35703C61.0208 8.25111 64.1561 7.68643 65.1399 7.56726C66.1369 7.44809 67.1207 7.3554 68.0911 7.2892C68.1044 6.7728 68.111 6.13723 68.111 5.38249C68.111 4.6145 68.111 3.89287 68.111 3.21757C68.0977 2.64821 68.0712 2.09871 68.0313 1.56906C67.9914 1.02618 67.9582 0.575985 67.9316 0.218476L71.6804 0C71.707 0.198616 71.7336 0.675294 71.7602 1.43003C71.8001 2.17153 71.82 3.07192 71.82 4.13121C71.82 4.52844 71.82 5.01174 71.82 5.5811C71.82 6.13722 71.82 6.63376 71.82 7.07072C72.2188 7.04424 72.7107 7.01775 73.2956 6.99127C73.8806 6.96479 74.3525 6.95155 74.7114 6.95155C75.3362 6.93831 75.9345 6.93169 76.5061 6.93169C77.0777 6.93169 77.5696 6.93831 77.9817 6.95155C78.3938 6.96479 78.6464 6.97803 78.7394 6.99127C78.8059 7.34878 78.8458 7.84532 78.8591 8.48089C78.8857 9.11646 78.899 9.6461 78.899 10.0698C78.766 10.0566 78.3074 10.05 77.5231 10.05C76.752 10.0367 75.9876 10.0367 75.2299 10.05C74.6848 10.0632 74.0866 10.0897 73.4352 10.1294C72.7838 10.1559 72.2255 10.1824 71.7602 10.2088C71.7469 10.5531 71.7203 11.0629 71.6804 11.7382C71.6538 12.4135 71.6273 13.1748 71.6007 14.0223C71.5741 14.8565 71.5475 15.7105 71.5209 16.5844C71.4943 17.4451 71.4744 18.2528 71.4611 19.0075C71.4478 19.749 71.4411 20.3515 71.4411 20.8149C71.4411 21.6491 71.4877 22.4436 71.5807 23.1983C71.6871 23.9531 71.9264 24.5754 72.2986 25.0653C72.6841 25.542 73.289 25.7803 74.1132 25.7803C74.6715 25.7803 75.1235 25.5817 75.4692 25.1845C75.8148 24.7872 76.0807 24.3304 76.2668 23.814C76.4662 23.2976 76.6124 22.8673 76.7055 22.523C76.8251 22.6554 76.9979 22.8342 77.2239 23.0593C77.4632 23.2711 77.7158 23.4962 77.9817 23.7346C78.2609 23.9729 78.5068 24.1848 78.7195 24.3701C78.9455 24.5555 79.0917 24.6813 79.1582 24.7475Z"
              fill="#F1AC5A"
            />
            <path
              d="M19.4904 57.817C19.4107 56.334 19.3176 54.5266 19.2112 52.3948C19.1049 50.2498 18.9919 47.9525 18.8723 45.5029C18.7526 43.04 18.6263 40.5904 18.4934 38.1541C18.3737 35.7045 18.2607 33.4535 18.1544 31.4011C18.633 31.3614 19.2112 31.3151 19.8892 31.2621C20.5805 31.2091 21.3117 31.1628 22.0827 31.1231C22.867 31.0701 23.6447 31.0304 24.4158 31.0039C25.1868 30.9774 25.8914 30.9642 26.5295 30.9642C27.5132 30.9642 28.4837 31.0569 29.4408 31.2423C30.398 31.4276 31.2621 31.752 32.0331 32.2155C32.8042 32.6789 33.4157 33.3343 33.8677 34.1818C34.333 35.0159 34.5656 36.0951 34.5656 37.4192C34.5656 38.783 34.2333 40.0542 33.5686 41.2326C32.9172 42.4111 31.9268 43.2651 30.5974 43.7948C30.9032 44.2979 31.2421 44.9666 31.6144 45.8008C31.9999 46.6217 32.3921 47.5287 32.7909 48.5218C33.1897 49.5017 33.5686 50.4881 33.9275 51.4812C34.2997 52.4743 34.6254 53.4011 34.9046 54.2618C35.1838 55.1092 35.3898 55.8044 35.5228 56.3473C35.2835 56.5062 34.9644 56.6584 34.5656 56.8041C34.1801 56.9497 33.7746 57.0822 33.3492 57.2013C32.9371 57.3205 32.5715 57.4198 32.2525 57.4992C31.9334 57.5787 31.7207 57.6184 31.6144 57.6184C31.4814 56.8769 31.282 56.0229 31.0161 55.0563C30.7503 54.0764 30.4445 53.0701 30.0989 52.0373C29.7532 50.9913 29.4076 49.9916 29.062 49.0382C28.7163 48.0716 28.3973 47.211 28.1048 46.4562C27.8123 45.7015 27.5731 45.1321 27.3869 44.7481C26.8818 44.8805 26.3367 44.9931 25.7518 45.0858C25.1802 45.1785 24.6418 45.2513 24.1366 45.3042C23.6314 45.344 23.2459 45.3704 22.98 45.3837C23.0066 45.6088 23.0465 46.0722 23.0997 46.774C23.1529 47.4625 23.2127 48.2901 23.2792 49.2567C23.3456 50.2233 23.4121 51.2296 23.4786 52.2757C23.545 53.3217 23.6048 54.3082 23.658 55.235C23.7245 56.1619 23.7777 56.9365 23.8176 57.5588C23.4852 57.625 23.0665 57.678 22.5613 57.7177C22.0694 57.7575 21.551 57.7839 21.0059 57.7972C20.4609 57.8104 19.9557 57.817 19.4904 57.817ZM22.6809 42.2257C23.2526 42.2257 23.8308 42.1992 24.4158 42.1463C25.0007 42.0933 25.6587 41.994 26.3899 41.8483C27.6528 41.5835 28.61 41.2591 29.2614 40.8751C29.9261 40.4779 30.3714 40.0078 30.5974 39.4649C30.8367 38.9088 30.9563 38.26 30.9563 37.5185C30.9563 36.4327 30.7303 35.6383 30.2783 35.1351C29.8264 34.632 29.2281 34.3076 28.4837 34.1619C27.7525 34.003 26.9416 33.9236 26.0509 33.9236C25.8382 33.9236 25.5325 33.9368 25.1336 33.9633C24.7481 33.9765 24.336 34.003 23.8973 34.0427C23.4719 34.0692 23.0864 34.1023 22.7408 34.142C22.3951 34.1685 22.1558 34.1884 22.0229 34.2016C22.0362 34.4267 22.0628 34.8173 22.1026 35.3735C22.1558 35.9163 22.209 36.5387 22.2622 37.2404C22.3286 37.9422 22.3885 38.6374 22.4416 39.3259C22.4948 40.0144 22.5413 40.6235 22.5812 41.1532C22.6344 41.6828 22.6676 42.0403 22.6809 42.2257Z"
              fill="#71CD6F"
            />
            <path
              d="M57.7504 52.8516C57.4846 53.2224 57.0924 53.6527 56.5739 54.1426C56.0555 54.6193 55.4107 55.0828 54.6397 55.533C53.8686 55.9699 52.9713 56.334 51.9477 56.6253C50.924 56.9166 49.7675 57.0623 48.478 57.0623C46.4839 57.0623 44.7358 56.6584 43.2336 55.8507C41.7314 55.043 40.5682 53.8646 39.744 52.3154C38.9197 50.7529 38.5076 48.8528 38.5076 46.6151C38.5076 44.4701 38.953 42.6097 39.8437 41.034C40.7476 39.4583 41.984 38.2401 43.5526 37.3795C45.1213 36.5188 46.9226 36.0885 48.9566 36.0885C51.509 36.0885 53.4964 36.8631 54.9188 38.4123C56.3546 39.9615 57.1522 42.0403 57.3117 44.6488C57.3383 45.0725 57.3516 45.483 57.3516 45.8802C57.3516 46.2642 57.3317 46.6614 57.2918 47.0719C57.119 47.0587 56.76 47.0454 56.215 47.0322C55.6832 47.0057 55.0584 46.9859 54.3406 46.9726C53.6227 46.9461 52.8982 46.9263 52.167 46.913C51.4492 46.8865 50.831 46.8733 50.3125 46.8733C48.9699 46.8733 47.594 46.9395 46.1848 47.0719C44.7757 47.2043 43.5194 47.3566 42.416 47.5287C42.4293 47.873 42.4625 48.2107 42.5157 48.5417C42.5689 48.8727 42.6354 49.1905 42.7151 49.495C42.9411 50.3027 43.3532 51.0045 43.9514 51.6004C44.5497 52.183 45.2609 52.6332 46.0851 52.9509C46.9226 53.2687 47.8067 53.4276 48.7372 53.4276C49.721 53.4276 50.5784 53.282 51.3096 52.9907C52.0407 52.6994 52.6655 52.3419 53.184 51.9181C53.7158 51.4944 54.1412 51.0906 54.4602 50.7066C54.7926 50.3226 55.0451 50.0379 55.218 49.8525C55.2977 49.9187 55.4506 50.0644 55.6766 50.2895C55.9159 50.5014 56.1685 50.7596 56.4343 51.0641C56.7135 51.3686 56.9727 51.6798 57.212 51.9976C57.4646 52.3021 57.6441 52.5868 57.7504 52.8516ZM42.4758 44.8673C43.433 44.7084 44.5563 44.5694 45.8458 44.4502C47.1486 44.331 48.6242 44.2714 50.2727 44.2714C51.1368 44.2714 51.8679 44.2847 52.4661 44.3112C53.0777 44.3244 53.5031 44.3443 53.7423 44.3708C53.7423 43.9338 53.6892 43.4704 53.5828 42.9804C53.4366 42.3184 53.1707 41.6762 52.7852 41.0539C52.3997 40.4315 51.8746 39.9151 51.2099 39.5047C50.5585 39.0809 49.7343 38.8691 48.7372 38.8691C47.5939 38.8691 46.5504 39.1141 45.6065 39.604C44.676 40.0807 43.9315 40.7692 43.3732 41.6696C42.8148 42.5567 42.5157 43.6226 42.4758 44.8673Z"
              fill="#71CD6F"
            />
            <path
              d="M78.8184 53.1496C78.4994 53.7984 77.961 54.4538 77.2032 55.1159C76.4455 55.7647 75.5016 56.3142 74.3716 56.7644C73.2417 57.2013 71.9588 57.4198 70.5231 57.4198C68.5689 57.4198 66.8872 56.9233 65.4781 55.9302C64.0689 54.9371 62.9855 53.6196 62.2277 51.9777C61.47 50.3226 61.0911 48.5152 61.0911 46.5555C61.0911 44.4105 61.4633 42.5104 62.2078 40.8553C62.9523 39.2001 64.0424 37.9025 65.4781 36.9624C66.9138 36.009 68.6686 35.5323 70.7424 35.5323C71.9788 35.5323 73.0954 35.7376 74.0925 36.1481C75.0895 36.5453 75.947 37.0882 76.6648 37.7767C77.3827 38.452 77.9477 39.1869 78.3598 39.9813L75.588 41.7887C75.5216 41.6431 75.3953 41.4048 75.2092 41.0737C75.0363 40.7427 74.7638 40.3984 74.3916 40.0409C74.0326 39.6702 73.5541 39.359 72.9559 39.1074C72.3709 38.8559 71.6331 38.7301 70.7424 38.7301C69.5061 38.7301 68.4559 39.028 67.5918 39.6238C66.7277 40.2064 66.0697 41.0274 65.6177 42.0867C65.179 43.1327 64.9596 44.3443 64.9596 45.7213C64.9596 47.0454 65.1457 48.2967 65.518 49.4752C65.9035 50.6404 66.515 51.5937 67.3525 52.3352C68.19 53.0767 69.3 53.4475 70.6826 53.4475C71.5201 53.4475 72.2579 53.3151 72.896 53.0503C73.5341 52.7854 74.0792 52.4743 74.5312 52.1168C74.9832 51.7593 75.3354 51.4282 75.588 51.1237C75.8539 50.8059 76.0134 50.594 76.0666 50.4881L78.8184 53.1496Z"
              fill="#71CD6F"
            />
            <path
              d="M87.7597 57.3006C87.5735 57.3139 87.2811 57.3337 86.8823 57.3602C86.4835 57.3867 86.078 57.3999 85.6659 57.3999C85.2937 57.3999 84.9347 57.3867 84.5891 57.3602C84.2434 57.3337 83.9177 57.3006 83.612 57.2609C83.6652 56.9166 83.7316 56.2082 83.8114 55.1357C83.8912 54.05 83.9709 52.7656 84.0507 51.2826C84.1304 49.7996 84.2036 48.2702 84.27 46.6945C84.3365 45.1189 84.3897 43.6491 84.4296 42.2853C84.4694 40.9082 84.4894 39.8158 84.4894 39.0081C84.6356 38.9949 84.8682 38.9816 85.1873 38.9684C85.5196 38.9552 85.8786 38.9419 86.2641 38.9287C86.6496 38.9022 87.0152 38.8823 87.3608 38.8691C87.7065 38.8559 87.9657 38.8492 88.1385 38.8492C88.1917 39.2067 88.2249 39.7562 88.2382 40.4977C88.2648 41.226 88.2781 42.0536 88.2781 42.9804C88.2781 44.2119 88.2648 45.5558 88.2382 47.0123C88.2249 48.4689 88.1917 49.8989 88.1385 51.3024C88.0854 52.706 88.0255 53.944 87.9591 55.0166C87.9059 56.0891 87.8394 56.8504 87.7597 57.3006ZM86.5433 35.7508C85.6393 35.7508 84.9214 35.4794 84.3897 34.9365C83.8579 34.3936 83.592 33.7117 83.592 32.8908C83.592 32.2684 83.725 31.752 83.9909 31.3416C84.2567 30.9178 84.6024 30.6001 85.0278 30.3882C85.4665 30.1631 85.9384 30.0506 86.4436 30.0506C87.2545 30.0506 87.9059 30.3352 88.3978 30.9046C88.9029 31.474 89.1555 32.1824 89.1555 33.0298C89.1555 33.7713 88.9162 34.4135 88.4376 34.9564C87.9724 35.486 87.3409 35.7508 86.5433 35.7508Z"
              fill="#71CD6F"
            />
            <path
              d="M93.9886 66C94.2013 64.0006 94.3875 61.8754 94.547 59.6244C94.7198 57.3867 94.866 55.1291 94.9857 52.8516C95.1186 50.5742 95.2183 48.3894 95.2848 46.2973C95.3645 44.2052 95.4244 42.2985 95.4643 40.5772C95.5041 38.8426 95.5241 37.406 95.5241 36.2672C96.0558 36.1083 96.6806 35.9958 97.3985 35.9296C98.1164 35.8501 98.7944 35.8104 99.4325 35.8104C99.4458 36.1547 99.4524 36.638 99.4524 37.2603C99.4657 37.8694 99.4723 38.4123 99.4723 38.889C99.8047 38.5182 100.303 38.1011 100.968 37.6377C101.646 37.161 102.47 36.7439 103.441 36.3864C104.424 36.0289 105.508 35.8501 106.691 35.8501C109.31 35.8501 111.304 36.6843 112.673 38.3527C114.056 40.0211 114.747 42.3383 114.747 45.3042C114.747 47.3831 114.388 49.1971 113.67 50.7463C112.966 52.2823 111.949 53.474 110.619 54.3214C109.29 55.1688 107.688 55.5925 105.813 55.5925C104.949 55.5925 104.039 55.4667 103.082 55.2152C102.138 54.9636 101.287 54.6657 100.529 54.3214C99.7714 53.9639 99.2463 53.6329 98.9539 53.3283C98.9539 53.6196 98.9273 54.1493 98.8741 54.9172C98.8342 55.6852 98.7811 56.5724 98.7146 57.5787C98.6481 58.5983 98.575 59.6311 98.4952 60.6771C98.4155 61.7231 98.3357 62.6897 98.256 63.5769C98.1895 64.464 98.1164 65.1526 98.0366 65.6425C97.5846 65.7219 97.0927 65.7881 96.561 65.8411C96.0425 65.8941 95.5507 65.9338 95.0854 65.9603C94.6201 65.9868 94.2545 66 93.9886 66ZM105.275 51.6798C106.618 51.6798 107.688 51.4084 108.486 50.8655C109.296 50.3226 109.977 49.5087 110.336 48.5024C110.695 47.4828 110.779 46.3106 110.779 44.907C110.779 43.093 110.347 41.6894 109.483 40.6964C108.618 39.69 107.349 39.1869 105.674 39.1869C104.65 39.1869 103.706 39.3723 102.842 39.743C101.978 40.1138 101.254 40.5308 100.669 40.9943C100.084 41.4577 99.6717 41.8417 99.4325 42.1463C99.4325 42.3714 99.4192 42.7951 99.3926 43.4174C99.3793 44.0397 99.3593 44.7415 99.3327 45.5227C99.3062 46.3039 99.2796 47.0521 99.253 47.7671C99.2397 48.4688 99.2425 48.5024 99.2131 49.3957C99.4923 49.6341 99.9044 49.9386 100.449 50.3094C100.994 50.6669 101.672 50.9847 102.483 51.2627C103.294 51.5408 104.225 51.6798 105.275 51.6798Z"
              fill="#71CD6F"
            />
            <path
              d="M137.319 52.8516C137.053 53.2224 136.661 53.6527 136.142 54.1426C135.624 54.6193 134.979 55.0828 134.208 55.533C133.437 55.9699 132.539 56.334 131.516 56.6253C130.492 56.9166 129.336 57.0623 128.046 57.0623C126.052 57.0623 124.304 56.6584 122.802 55.8507C121.3 55.043 120.136 53.8646 119.312 52.3154C118.488 50.7529 118.076 48.8528 118.076 46.6151C118.076 44.4701 118.521 42.6097 119.412 41.034C120.316 39.4583 121.552 38.2401 123.121 37.3795C124.689 36.5188 126.491 36.0885 128.525 36.0885C131.077 36.0885 133.065 36.8631 134.487 38.4123C135.923 39.9615 136.72 42.0403 136.88 44.6488C136.906 45.0725 136.92 45.483 136.92 45.8802C136.92 46.2642 136.9 46.6614 136.86 47.0719C136.687 47.0587 136.328 47.0454 135.783 47.0322C135.251 47.0057 134.627 46.9859 133.909 46.9726C133.191 46.9461 132.466 46.9263 131.735 46.913C131.017 46.8865 130.399 46.8733 129.881 46.8733C128.538 46.8733 127.162 46.9395 125.753 47.0719C124.344 47.2043 123.088 47.3566 121.984 47.5287C121.997 47.873 122.031 48.2107 122.084 48.5417C122.137 48.8727 122.203 49.1905 122.283 49.495C122.509 50.3027 122.921 51.0045 123.52 51.6004C124.118 52.183 124.829 52.6332 125.653 52.9509C126.491 53.2687 127.375 53.4276 128.305 53.4276C129.289 53.4276 130.147 53.282 130.878 52.9907C131.609 52.6994 132.234 52.3419 132.752 51.9181C133.284 51.4944 133.709 51.0906 134.028 50.7066C134.361 50.3226 134.613 50.0379 134.786 49.8525C134.866 49.9187 135.019 50.0644 135.245 50.2895C135.484 50.5014 135.737 50.7596 136.002 51.0641C136.282 51.3686 136.541 51.6798 136.78 51.9976C137.033 52.3021 137.212 52.5868 137.319 52.8516ZM122.044 44.8673C123.001 44.7084 124.124 44.5694 125.414 44.4502C126.717 44.331 128.192 44.2714 129.841 44.2714C130.705 44.2714 131.436 44.2847 132.034 44.3112C132.646 44.3244 133.071 44.3443 133.31 44.3708C133.31 43.9338 133.257 43.4704 133.151 42.9804C133.005 42.3184 132.739 41.6762 132.353 41.0539C131.968 40.4315 131.443 39.9151 130.778 39.5047C130.127 39.0809 129.302 38.8691 128.305 38.8691C127.162 38.8691 126.119 39.1141 125.175 39.604C124.244 40.0807 123.5 40.7692 122.941 41.6696C122.383 42.5567 122.084 43.6226 122.044 44.8673Z"
              fill="#71CD6F"
            />
            <path
              d="M149.646 58.8896C148.41 58.8896 147.18 58.7174 145.957 58.3732C144.734 58.0289 143.617 57.5721 142.607 57.0027C141.61 56.4201 140.812 55.7779 140.214 55.0761C140.307 54.8908 140.44 54.6392 140.613 54.3214C140.786 54.0036 140.985 53.6726 141.211 53.3283C141.437 52.9708 141.663 52.6464 141.889 52.3551C142.115 52.0506 142.314 51.8188 142.487 51.66C143.059 52.2955 143.744 52.9112 144.541 53.5071C145.339 54.0897 146.196 54.5664 147.114 54.9371C148.031 55.2946 148.948 55.4734 149.865 55.4734C150.743 55.4734 151.534 55.3476 152.238 55.096C152.956 54.8312 153.521 54.4538 153.933 53.9639C154.359 53.474 154.571 52.8847 154.571 52.1962C154.571 51.4017 154.319 50.7198 153.814 50.1505C153.308 49.5679 152.63 49.0581 151.78 48.6211C150.929 48.1709 149.992 47.7605 148.968 47.3897C147.732 46.9395 146.602 46.4496 145.578 45.92C144.568 45.3771 143.757 44.7018 143.145 43.8941C142.547 43.0864 142.248 42.0602 142.248 40.8155C142.248 39.5444 142.607 38.4851 143.325 37.6377C144.056 36.7902 145.013 36.1481 146.196 35.7111C147.393 35.2741 148.682 35.0557 150.065 35.0557C151.607 35.0557 153.023 35.2543 154.312 35.6515C155.615 36.0355 156.612 36.4857 157.303 37.0021C157.25 37.2272 157.137 37.5251 156.964 37.8959C156.791 38.2534 156.592 38.6175 156.366 38.9883C156.14 39.359 155.907 39.6967 155.668 40.0012C155.03 39.5775 154.252 39.1736 153.335 38.7896C152.418 38.4057 151.421 38.2137 150.344 38.2137C149.626 38.2137 148.935 38.2997 148.27 38.4719C147.605 38.6308 147.06 38.9022 146.635 39.2862C146.21 39.6702 145.997 40.1932 145.997 40.8553C145.997 41.4246 146.203 41.9344 146.615 42.3846C147.04 42.8348 147.612 43.2386 148.33 43.5961C149.048 43.9404 149.859 44.2714 150.763 44.5892C151.853 44.96 152.863 45.3771 153.794 45.8405C154.724 46.2907 155.528 46.8137 156.206 47.4096C156.898 47.9922 157.436 48.6675 157.822 49.4354C158.207 50.1902 158.4 51.0442 158.4 51.9976C158.4 53.5203 158.008 54.7915 157.223 55.811C156.439 56.8306 155.389 57.5986 154.073 58.115C152.757 58.6314 151.281 58.8896 149.646 58.8896Z"
              fill="#71CD6F"
            />
            <path
              d="M10.5998 39.8487C10.0961 39.9193 9.53253 39.9638 8.90897 39.9822C8.28542 40.0006 7.75464 40.005 7.31664 39.9954C7.31015 39.2125 7.29576 38.277 7.27348 37.1891C7.25119 36.1011 7.22178 34.9534 7.18524 33.7461C7.14869 32.5388 7.10551 31.3316 7.0557 30.1244C7.00589 28.9172 6.95015 27.7963 6.8885 26.7617C6.84011 25.727 6.79311 24.8582 6.74747 24.1552C6.97305 24.1534 7.24508 24.1511 7.56354 24.1485C7.88212 24.1591 8.20733 24.1697 8.53918 24.1802C8.8843 24.1906 9.19623 24.2013 9.475 24.2123C9.76715 24.2364 9.99295 24.2611 10.1524 24.2863C10.2818 25.4928 10.3994 26.872 10.5052 28.4237C10.6243 29.9886 10.6912 31.6535 10.7058 33.4184C10.7172 34.7984 10.7142 36.0392 10.6968 37.1408C10.6927 38.2423 10.6604 39.1449 10.5998 39.8487Z"
              fill="#F1AC5A"
            />
            <path
              d="M15.0376 30.0887C15.2647 30.2726 15.512 30.4828 15.7793 30.7195C16.0468 30.9694 16.2945 31.2261 16.5222 31.4896C16.7633 31.7531 16.9444 31.9904 17.0656 32.2017C17.0014 32.4677 16.7404 33.0007 16.2826 33.8007C15.8248 34.6007 15.2488 35.5543 14.5546 36.6615C13.8737 37.7686 13.1402 38.9226 12.3539 40.1234C11.5809 41.3241 10.8272 42.4584 10.0929 43.5261L6.88884 43.6124C6.17434 42.2647 5.42601 40.8377 4.64385 39.3313C3.87506 37.8382 3.15327 36.4109 2.47847 35.0497C1.80378 33.7017 1.24364 32.5651 0.798056 31.6398C0.352577 30.7279 0.102473 30.1726 0.0477459 29.974C0.153132 29.8802 0.318176 29.7793 0.542878 29.6713C0.78085 29.5632 1.03878 29.4615 1.31667 29.3663C1.60783 29.271 1.87919 29.1891 2.13076 29.1207C2.38245 29.0655 2.568 29.0374 2.68742 29.0365C2.7688 29.2481 2.97788 29.6578 3.31468 30.2654C3.66485 30.8862 4.08905 31.6325 4.58728 32.5042C5.08562 33.3892 5.62426 34.3335 6.2032 35.3373C6.79542 36.3409 7.38094 37.338 7.95977 38.3285C8.53872 39.3322 9.07714 40.2501 9.57504 41.082L8.27813 40.7145C8.69747 40.0741 9.20833 39.267 9.8107 38.2933C10.4265 37.3327 11.0684 36.3254 11.7364 35.2716C12.4046 34.2309 13.0334 33.2437 13.6228 32.3099C14.2124 31.3894 14.684 30.6489 15.0376 30.0887Z"
              fill="#F1AC5A"
            />
          </svg>